<?xml version="1.0" standalone="no"?>
<!DOCTYPE svg PUBLIC "-//W3C//DTD SVG 20010904//EN"
 "http://www.w3.org/TR/2001/REC-SVG-20010904/DTD/svg10.dtd">
<svg version="1.0" xmlns="http://www.w3.org/2000/svg"
 width="700.000000pt" height="700.000000pt" viewBox="0 0 700.000000 700.000000"
 preserveAspectRatio="xMidYMid meet">
<metadata>
Created by potrace 1.11, written by Peter Selinger 2001-2013
</metadata>
<g transform="translate(0.000000,700.000000) scale(0.100000,-0.100000)"
fill="#000000" stroke="none">
<path d="M3298 6995 c-1 -1 -48 -6 -102 -9 -55 -4 -102 -8 -105 -10 -3 -2 -35
-7 -70 -10 -35 -4 -85 -11 -110 -16 -25 -5 -57 -12 -71 -14 -134 -24 -259 -56
-405 -103 -100 -32 -155 -52 -310 -115 -240 -97 -654 -349 -836 -508 -10 -8
-42 -35 -73 -60 -54 -44 -300 -289 -364 -362 -321 -369 -578 -845 -718 -1333
-19 -66 -37 -131 -39 -145 -3 -14 -7 -36 -10 -50 -33 -148 -61 -332 -73 -470
-9 -114 -8 -506 1 -600 37 -361 114 -678 239 -990 52 -129 168 -368 213 -439
14 -23 25 -43 25 -45 0 -22 241 -359 344 -481 53 -63 331 -344 378 -382 179
-146 390 -299 508 -366 279 -161 588 -290 872 -366 135 -36 344 -78 430 -87
35 -3 66 -8 69 -9 29 -18 535 -26 709 -12 105 9 111 9 290 38 609 99 1242 400
1710 814 76 67 303 296 361 365 304 357 538 779 678 1225 58 186 111 422 126
565 4 30 8 61 11 69 24 73 23 781 -1 820 -1 4 -6 33 -9 66 -3 33 -8 69 -10 80
-2 11 -11 61 -21 110 -153 819 -623 1579 -1301 2106 -96 75 -309 219 -324 219
-5 0 -10 5 -10 10 0 6 -5 10 -10 10 -6 0 -29 12 -52 26 -66 42 -290 151 -416
203 -282 115 -619 203 -912 236 -30 4 -68 8 -85 11 -35 5 -522 14 -527 9z
m498 -268 c17 -2 57 -7 90 -11 1324 -158 2431 -1133 2754 -2426 73 -294 96
-486 94 -805 -1 -214 -6 -292 -29 -450 -61 -413 -203 -817 -413 -1175 -50 -84
-202 -308 -237 -349 -12 -14 -51 -60 -85 -101 -111 -135 -287 -308 -422 -416
-45 -36 -92 -74 -103 -83 -11 -9 -41 -29 -65 -46 -25 -16 -47 -33 -50 -36 -17
-20 -229 -145 -365 -214 -228 -117 -438 -196 -673 -255 -65 -16 -130 -31 -147
-34 -16 -3 -53 -10 -82 -15 -29 -6 -74 -13 -100 -16 -26 -4 -59 -8 -73 -11
-61 -10 -229 -18 -390 -19 -260 0 -381 12 -648 61 -49 9 -195 46 -218 54 -14
6 -35 12 -47 14 -24 5 -171 52 -202 65 -11 5 -47 19 -80 32 -98 36 -315 142
-421 204 -85 50 -257 161 -289 187 -5 4 -57 45 -115 90 -107 84 -380 348 -461
447 -255 311 -454 663 -582 1031 -38 106 -95 316 -112 410 -10 55 -34 208 -40
255 -4 28 -8 64 -11 80 -12 79 -10 481 2 610 87 876 519 1677 1199 2220 27 22
56 46 64 53 7 7 84 60 170 117 311 208 682 370 1036 455 73 17 243 49 295 55
25 3 54 8 65 10 12 2 61 7 110 11 50 3 92 8 93 9 5 5 449 -3 488 -8z"/>
<path d="M3225 6440 c-203 -22 -357 -51 -515 -96 -110 -31 -245 -77 -255 -85
-5 -5 -14 -9 -21 -9 -41 0 -387 -174 -524 -264 -93 -60 -256 -179 -270 -196
-3 -3 -25 -21 -50 -40 -67 -52 -277 -263 -356 -360 -346 -418 -567 -907 -649
-1435 -28 -178 -33 -264 -30 -490 2 -126 6 -243 8 -260 2 -16 7 -55 11 -86 4
-31 9 -67 11 -80 3 -13 7 -37 10 -54 58 -339 193 -698 377 -1003 54 -89 172
-261 205 -297 10 -12 34 -41 53 -65 72 -93 256 -277 377 -378 160 -134 364
-270 540 -361 l83 -42 1 28 c0 15 2 46 3 68 2 22 7 112 11 200 4 88 9 178 10
200 1 22 5 108 9 190 4 83 9 175 11 205 3 30 7 107 10 170 3 63 8 153 10 200
3 47 7 132 10 190 3 58 7 157 10 220 l6 115 -88 30 c-168 57 -253 106 -362
209 -56 54 -181 213 -181 231 0 4 -8 19 -18 33 -42 62 -115 252 -146 382 -45
188 -61 405 -43 585 41 429 306 842 660 1030 163 87 344 117 502 85 244 -49
523 -263 681 -520 87 -143 156 -309 183 -440 6 -30 13 -68 17 -85 11 -53 13
-337 3 -430 -8 -71 -31 -196 -53 -280 -51 -200 -177 -431 -306 -563 -111 -114
-211 -176 -380 -235 l-95 -33 1 -45 c1 -24 4 -109 8 -189 4 -80 9 -176 11
-215 2 -38 6 -124 10 -190 4 -66 8 -156 10 -200 2 -44 6 -129 10 -190 7 -146
14 -267 20 -395 3 -58 8 -134 10 -170 2 -36 7 -130 11 -210 4 -80 7 -154 8
-165 0 -11 6 -20 11 -21 8 0 92 -18 140 -30 17 -4 206 -33 265 -40 84 -10 488
-13 547 -4 29 5 78 11 110 15 59 6 112 14 142 20 9 2 60 13 113 24 53 11 147
35 207 52 l111 32 1 36 c0 20 2 56 4 81 2 42 10 188 20 395 5 94 12 235 20
370 2 44 7 134 10 200 3 66 7 152 10 190 8 108 17 321 19 413 l1 84 -80 27
c-179 61 -310 152 -435 302 -59 71 -74 102 -85 172 -3 27 -8 59 -11 70 -5 24
-4 396 1 497 5 111 15 273 20 325 3 28 7 84 10 125 8 97 14 174 20 230 3 25 7
69 10 98 3 28 7 75 10 102 3 28 7 74 10 103 6 62 15 142 20 177 2 14 6 54 10
90 4 36 8 76 10 90 2 14 7 50 10 80 3 30 8 66 10 80 10 69 18 137 17 152 -1
27 17 33 106 33 l82 1 0 -31 c0 -16 1 -463 1 -993 l0 -963 92 3 92 3 0 990 0
990 100 0 100 0 -1 -993 0 -992 91 0 91 0 -1 978 c0 537 1 984 3 993 3 13 20
16 104 15 l100 -1 0 -993 0 -993 91 3 92 3 0 980 c0 539 3 985 7 991 4 6 35
10 70 9 l63 -1 17 -129 c9 -72 19 -157 23 -190 3 -33 8 -71 10 -85 4 -24 9
-73 20 -182 3 -29 8 -69 10 -88 3 -19 7 -60 10 -90 3 -30 8 -76 10 -102 5 -51
12 -123 20 -198 2 -25 7 -79 10 -120 8 -116 16 -211 20 -260 17 -179 24 -605
13 -730 -12 -133 -20 -155 -78 -230 -114 -148 -294 -276 -456 -324 -33 -10
-65 -19 -72 -22 -9 -3 -11 -24 -7 -86 3 -46 7 -128 10 -183 3 -55 7 -140 10
-190 8 -142 14 -271 20 -385 10 -216 15 -297 20 -385 3 -49 7 -134 10 -189 2
-54 6 -100 7 -102 7 -7 278 175 353 237 533 439 873 970 1034 1614 27 109 56
277 68 400 10 104 10 500 0 590 -4 39 -10 86 -12 107 -4 37 -19 125 -39 225
-13 65 -69 261 -100 350 -145 414 -394 806 -715 1123 -430 423 -944 691 -1546
805 -16 3 -64 10 -105 15 -41 6 -88 13 -105 16 -50 9 -515 12 -590 4z"/>
<path d="M1833 4328 c-22 -35 -49 -84 -61 -110 -24 -53 -70 -204 -78 -258 -3
-19 -8 -46 -11 -60 -13 -58 -11 -268 4 -331 30 -129 112 -324 176 -419 66 -97
257 -260 325 -277 15 -3 30 0 40 11 15 15 14 18 -6 43 -114 143 -168 229 -216
345 -52 127 -124 347 -132 403 -10 76 -11 309 -2 379 4 33 10 79 13 101 3 22
14 77 26 122 18 67 20 85 9 98 -24 29 -47 17 -87 -47z"/>
</g>
</svg>
